<svg xmlns="http://www.w3.org/2000/svg" width="20" height="20" viewBox="0 0 20 20"><path d="M16.88 5.653h-4.843v2.82l.986.622a.246.246 0 0 0 .108 0l4.244-2.86c0-.34-.316-.582-.494-.582zm-3.664 4.492s-.153.093-.28 0l-.9-.618v3.834h4.572c.406 0 .768-.236.768-.8V7.375c-.002 0-4.313 2.863-4.16 2.77zM7.378 8.226c-.307 0-.55.144-.73.432-.182.287-.272.668-.272 1.142 0 .48.09.86.27 1.14.18.28.418.42.71.42.303 0 .542-.136.72-.408.176-.272.264-.65.264-1.132 0-.503-.086-.895-.257-1.175-.173-.28-.407-.42-.705-.42zM3.11 4.22v11.037l8.395 1.76V2.595L3.11 4.22zm5.618 7.385c-.355.467-.818.7-1.388.7-.556 0-1.01-.225-1.36-.678-.35-.453-.525-1.042-.525-1.77 0-.766.178-1.387.534-1.86.355-.475.826-.712 1.413-.712.554 0 1.003.226 1.344.68.34.453.513 1.05.513 1.794 0 .762-.178 1.378-.532 1.845z" fill="#ADADAD"/></svg>