<svg xmlns="http://www.w3.org/2000/svg" width="20" height="20" viewBox="0 0 20 20"><path fill="#ADADAD" d="M5.533 6.004c0 1.353.452 2.33 1.343 2.904.73.47 1.576.54 2.016.54.107 0 .192-.004.252-.008 0 0-.14.91.534 1.808h-.03c-1.168 0-4.977.244-4.977 3.375 0 3.186 3.5 3.348 4.2 3.348h.088c.008 0 .058.002.143.002.45 0 1.616-.057 2.697-.582 1.402-.68 2.114-1.865 2.114-3.52 0-1.598-1.083-2.55-1.874-3.245-.483-.424-.9-.79-.9-1.145 0-.363.305-.635.69-.98.624-.558 1.212-1.353 1.212-2.854 0-1.32-.17-2.206-1.226-2.77.11-.055.5-.096.69-.123.572-.078 1.41-.167 1.41-.633v-.09H9.744c-.042 0-4.212.154-4.212 3.974zm6.724 8.164c.08 1.274-1.01 2.214-2.646 2.333-1.66.122-3.03-.626-3.11-1.898-.038-.61.23-1.21.758-1.688.534-.484 1.267-.782 2.064-.84.094-.006.188-.01.28-.01 1.538 0 2.58.904 2.655 2.104zM11.17 5.132c.408 1.437-.21 2.94-1.193 3.217-.113.03-.23.047-.348.047-.902 0-1.795-.912-2.125-2.167-.185-.705-.17-1.322.042-1.915.21-.582.583-.976 1.054-1.11a1.38 1.38 0 0 1 .35-.047c1.087 0 1.786.45 2.22 1.974z"/></svg>