<svg xmlns="http://www.w3.org/2000/svg" width="22" height="22" viewBox="0 0 22 22"><defs><style>.svg-global-small{fill:#000054;fill-rule:evenodd}</style></defs><path id="Icon_-_Global_Small" data-name="Icon - Global Small" class="svg-global-small" d="M1059 330a11 11 0 1 0 11 11 11 11 0 0 0-11-11zm0 20c-.46 0-1.57-1.513-2.21-4.351.77.071 1.55.12 2.35.12.7 0 1.39-.037 2.06-.091-.64 2.822-1.74 4.322-2.2 4.322zm.14-6.231a23.34 23.34 0 0 1-2.69-.159 23.258 23.258 0 0 1-.15-2.61c0-.446.02-.871.04-1.286.89.078 1.82.119 2.77.119q1.305 0 2.55-.1c.02.409.04.829.04 1.268a21.473 21.473 0 0 1-.16 2.64 23.486 23.486 0 0 1-2.4.128zM1050 341a9.223 9.223 0 0 1 .38-2.591 18.356 18.356 0 0 0 3.97 1.056c-.03.5-.05 1.013-.05 1.535 0 .777.04 1.534.1 2.265a11.332 11.332 0 0 1-4.38-1.813c0-.152-.02-.299-.02-.452zm9-9c.53 0 1.91 2.013 2.46 5.74a29.484 29.484 0 0 1-4.92-.019c.55-3.714 1.93-5.721 2.46-5.721zm4.65 7.5a19.283 19.283 0 0 0 3.99-1.008A9.049 9.049 0 0 1 1068 341c0 .222-.02.44-.03.659a12.278 12.278 0 0 1-4.38 1.672c.07-.752.11-1.531.11-2.331 0-.511-.02-1.01-.05-1.5zm3.22-2.855a17.243 17.243 0 0 1-3.42.862 15.947 15.947 0 0 0-1.46-4.981 9.019 9.019 0 0 1 4.88 4.116zm-10.86-4.119a16.053 16.053 0 0 0-1.46 4.948 16.267 16.267 0 0 1-3.38-.9 9.058 9.058 0 0 1 4.84-4.051zm-5.45 11.571a17.084 17.084 0 0 0 4.13 1.27 15.124 15.124 0 0 0 1.32 4.113 9.033 9.033 0 0 1-5.45-5.386zm11.43 5.383a15.18 15.18 0 0 0 1.31-4.057 17.7 17.7 0 0 0 4.08-1.169 9.008 9.008 0 0 1-5.39 5.223z" transform="translate(-1048 -330)"/></svg>