<svg width="21" height="14" viewBox="80 163 21 14" xmlns="http://www.w3.org/2000/svg"><path d="M94.897 174.97c-10.434 0-11.106.307-12.106-.434-2.096-1.553.352-4.775 2.448-3.113-2.056-6.754 8.325-9.035 9.663-2.424 3.943-.14 4.255 5.972-.005 5.972m1.55-7.74s-.702-1.81-2.558-3.05c-4.323-2.885-10.162-.194-10.822 4.905-.005.037-.06.039-.03.032a4.013 4.013 0 0 0-2.315 1.584c-1.115 1.583-.988 3.897.73 5.292 1.592 1.292 2.08.97 13.32.97a5.41 5.41 0 0 0 3.51-1.293c3-2.572 1.879-7.315-1.834-8.44" fill="#FFF" fill-rule="evenodd"/></svg>