<svg xmlns="http://www.w3.org/2000/svg" width="69.32" height="80" viewBox="0 0 69.32 80"><defs><style>.svg-australia-large{fill:#000054;fill-rule:evenodd}</style></defs><path id="Icon_-_Australia_Large" data-name="Icon - Australia Large" class="svg-australia-large" d="M1027.15 406.358v4.1h23.7v-4.1l13.14 13.179-5.64 11.633h-7.36l-1.48-2.225-2.37-3.572h-23.02l-2.34 2.353-.79.794-6.38-9.588 12.54-12.574m15.7-19.358v15.457h-7.7v-7.729h-7.71l-23.11 23.186 15.41 23.186 7.7-7.729h15.41l3.85 5.8h16.66l10.31-21.254L1042.85 387zm17.7 57.964h-9.99l5.77 8.7 4.22-8.7zM1032.32 467l4.45-4.444 4.44 4.444 4.44-4.444-8.88-8.888-8.89 8.888z" transform="translate(-1004.34 -387)"/></svg>