<svg xmlns="http://www.w3.org/2000/svg" width="20" height="19.938" viewBox="0 0 20 19.938"><defs><style>.svg-linkedin{fill:#fff;fill-rule:evenodd}</style></defs><path id="LinkedIn" class="svg-linkedin" d="M760.329 337.647h4.147v13.336h-4.147v-13.336zm2.074-6.63a2.4 2.4 0 1 1-2.4 2.4 2.4 2.4 0 0 1 2.4-2.4m4.673 6.63h3.976v1.821h.057a4.355 4.355 0 0 1 3.922-2.154c4.194 0 4.969 2.762 4.969 6.354v7.315h-4.14V344.5c0-1.547-.03-3.537-2.155-3.537-2.157 0-2.486 1.685-2.486 3.425v6.6h-4.143v-13.341z" transform="translate(-760 -331.031)"/></svg>