<svg width="31" height="42" viewBox="0 0 31 42" xmlns="http://www.w3.org/2000/svg"><title>watch.icon</title><g fill="#81CFF4" fill-rule="evenodd"><path d="M16.181 23.21h2.77v-4.097h-3.986v-4.097H10.98v8.194h.03z"/><path d="M4.338.677V8.19H.353v25.946h3.985v7.51h17.27v-7.51h3.984V23.209h4.65v-4.096h-4.65V8.189h-3.985V.677H4.338zm3.985 7.511h9.299V4.774H8.323v3.414zm-3.985 21.85h17.27V12.284H4.337v17.752zm3.985 7.51h9.299v-3.413H8.323v3.413z"/><path d="M4.338 12.285h17.27V.677H4.337v11.608zm3.985-4.097h9.3V4.774h-9.3v3.414zM4.338 41.645h17.27V30.038H4.337v11.607zm3.985-4.097h9.3v-3.414h-9.3v3.414z"/><path d="M.353 34.134h25.24V8.188H.352v25.946zm3.985-4.096h17.27V12.285H4.337v17.753z"/><path d="M14.965 19.113v-4.097H10.98v8.194h7.971v-4.097zm10.627 4.097h4.65v-4.097h-4.65z"/></g></svg>