<svg xmlns="http://www.w3.org/2000/svg" width="22" height="15.5" viewBox="0 0 22 15.5"><defs><style>.svg-youtube{fill:#fff;fill-rule:evenodd}</style></defs><path id="Youtube" class="svg-youtube" d="M738.78 336.6a4.76 4.76 0 0 0-.874-2.183 3.147 3.147 0 0 0-2.2-.932c-3.078-.223-7.7-.223-7.7-.223H728s-4.618 0-7.7.223a3.147 3.147 0 0 0-2.2.932 4.76 4.76 0 0 0-.874 2.183 33.293 33.293 0 0 0-.22 3.561v1.669a33.293 33.293 0 0 0 .22 3.561 4.76 4.76 0 0 0 .874 2.183 3.729 3.729 0 0 0 2.426.941c1.76.168 7.48.221 7.48.221s4.623-.007 7.7-.23a3.142 3.142 0 0 0 2.2-.932 4.76 4.76 0 0 0 .874-2.183 33.293 33.293 0 0 0 .22-3.561v-1.669a33.293 33.293 0 0 0-.22-3.561zm-13.051 7.253v-6.182l5.944 3.1z" transform="translate(-717 -333.25)"/></svg>