<svg xmlns="http://www.w3.org/2000/svg" width="160" height="56" viewBox="0 0 160 56"><path fill="#000054" d="M127.292 3.983h4.203V2.435H116.85v1.548h4.226V33.45h-4.226v1.536h14.646V33.45h-4.203V3.984zm26.65 30.996v-1.527h-4.49V3.656c6.862-.342 8.032 1.126 8.91 7.35h1.51l-.535-8.57H133.28l-.53 8.57h1.545c.887-6.225 2.044-7.692 8.918-7.35v29.796h-4.494v1.526h15.22M55.75 16.36V3.945h4.24c4.34 0 5.943 1.09 5.943 6.562 0 4.363-1.8 5.85-6.187 5.85H55.75m58.313-12.412V2.41H102.06l-7.053 22.254L88.193 2.41H76.237v1.536h4.206v29.458L75.9 33.4c-4.22.102-4.284-3.496-4.265-4.24.058-7.932-1.714-10.8-9.315-11.975v-.105c4.533-.48 10.33-1.77 10.33-7.264 0-6.768-6.317-7.405-11.644-7.405h-15.69v1.537h4.2v29.47h-4.2v1.533h14.636v-1.532h-4.2v-15.54c2.7-.106 5.74.582 7.114 1.764 1.267 1.074 1.95 4.396 1.95 8.427 0 4.976 2.57 6.86 7.498 6.86h14.104v-1.525H82.31V4.45h.1l9.687 30.48h1.646l9.746-30.48h.15v28.954h-4.192v1.527h14.617v-1.526h-4.194V3.946h4.193z"/><path fill="#DC291E" d="M19.07.48h-4.86v3.947H6.123v8.23H.035V24.81h6.163v8.022h8.013v4.078h4.285c10.007 0 18.838-8.08 18.838-18.168C37.333 8.718 29.093.48 19.07.48"/><path fill="#000054" d="M49.503 44.72c0-.272-.147-.4-.4-.4h-.787v-1.57h1.844c.82 0 1.17.35 1.17 1.17v7.14c0 1.934 1.222 3.086 3.085 3.086s3.086-1.152 3.086-3.104V43.92c0-.82.364-1.168 1.185-1.168h1.828v1.57h-.786c-.254 0-.4.127-.4.4v6.41c0 2.81-1.956 4.73-4.894 4.73-2.96 0-4.93-1.92-4.93-4.73v-6.41zM61.81 54.07h.784c.257 0 .403-.145.403-.4V42.752h1.662l5.732 8.16c.475.695 1.077 1.755 1.077 1.755h.037s-.13-1.024-.13-1.754v-6.99c0-.822.348-1.17 1.19-1.17h1.825v1.57h-.786c-.256 0-.4.127-.4.402V55.64H71.56l-5.75-8.162c-.476-.694-1.06-1.752-1.06-1.752h-.037s.11 1.04.11 1.752v6.992c0 .823-.35 1.17-1.17 1.17H61.81v-1.572zm14.19 0h1.26v-9.75H76V42.75h4.256v1.568h-1.263v9.75h1.263v1.572H76v-1.572zm6.245-9.347c-.11-.33-.294-.4-.603-.4h-.26v-1.57h1.025c.914 0 1.223.2 1.514 1.06l2.832 7.942c.24.694.494 1.77.494 1.77h.036s.238-1.075.494-1.77l2.828-7.942c.312-.858.603-1.06 1.517-1.06h1.025v1.57h-.256c-.33 0-.495.073-.605.4L88.23 55.64H86.3l-4.055-10.92zm13.148-.402h-1.186V42.75h7.577c.82 0 1.167.346 1.167 1.17v1.622h-1.66v-.82c0-.274-.147-.4-.4-.4h-3.67v4.034h4.51v1.57h-4.51v3.743c0 .255.146.4.4.4h3.76c.26 0 .404-.146.404-.4v-.822h1.68v1.625c0 .82-.348 1.168-1.168 1.168h-5.733c-.824 0-1.17-.346-1.17-1.167V44.318zm10.52 0h-1.19V42.75h5.626c2.263 0 3.853 1.423 3.853 3.78 0 2.153-1.407 3.212-2.318 3.41v.038s.327.166.547.584l1.555 3.088c.18.383.474.42.91.42h.238v1.57h-.895c-1.004 0-1.37-.127-1.79-.97l-1.753-3.468c-.327-.604-.565-.694-1.278-.694h-1.68v5.132h-1.826V44.318h-.002zm4.198 4.62c1.39 0 2.21-.894 2.21-2.335 0-1.444-.82-2.285-2.172-2.285h-2.412v4.62h2.375zm7.052 3.708s1.314 1.55 3.23 1.55c1.205 0 2.21-.73 2.21-1.915 0-2.7-6.225-2.282-6.225-6.3 0-1.935 1.696-3.45 4.125-3.45 1.37 0 3.67.62 3.67 2.372v1.062h-1.68v-.603c0-.675-.97-1.17-1.99-1.17-1.388 0-2.265.768-2.265 1.735 0 2.61 6.207 2.027 6.207 6.264 0 1.97-1.532 3.67-4.09 3.67-2.74 0-4.27-1.92-4.27-1.92l1.078-1.294zm8.945 1.422h1.262v-9.75h-1.263V42.75h4.254v1.568h-1.257v9.75h1.258v1.572h-4.253v-1.572zm10.064-9.75h-2.59c-.26 0-.404.127-.404.4v.823h-1.626v-1.697c0-.822.276-1.094 1.097-1.094h8.873c.824 0 1.096.272 1.096 1.093v1.698h-1.623v-.82c0-.273-.145-.4-.403-.4h-2.592v11.32h-1.826V44.318zm11.65 5.698l-3.268-5.238c-.238-.385-.402-.457-.787-.457h-.363v-1.57h.84c.878 0 1.223.13 1.734.985l1.953 3.252c.42.713.783 1.443.783 1.443h.036s.347-.732.786-1.443l1.936-3.252c.508-.856.877-.985 1.73-.985h.843v1.57h-.345c-.385 0-.566.073-.807.458l-3.248 5.238v5.625h-1.826v-5.624z"/></svg>