<svg width="30" height="32" viewBox="0 0 30 32" xmlns="http://www.w3.org/2000/svg"><title>result.icon</title><g fill="#FFF" fill-rule="evenodd"><path d="M12.861 29.36h14.945V18.347h-6.939a1.52 1.52 0 0 1-1.134-.482 1.619 1.619 0 0 1-.467-1.17V9.536h-6.405V29.36zm4.27-26.432H4.321v2.203h12.81V2.928zm4.27 13.216h4.987L21.4 11v5.145zm8.54 15.418H10.726v-4.405H.052V.726h21.349v7.296c.233.15 8.54 8.802 8.54 8.802v14.738z"/><path d="M12.506 14.002h5.81v5.996h5.813v5.997h5.812V8.007H12.506z"/></g></svg>