<svg width="31" height="32" viewBox="0 0 31 32" xmlns="http://www.w3.org/2000/svg"><title>announcement.icon</title><g fill="#50D2FF" fill-rule="evenodd"><path d="M.755.726v24.069H9.72l5.98 6.655 5.48-6.656h9.464V.725H.755zm2.988 3.072h23.911v17.924h-7.861L15.6 26.813l-4.571-5.091H3.743V3.798z"/><path d="M19.684 13.016c0 2.263-1.784 4.097-3.985 4.097-2.2 0-3.985-1.834-3.985-4.097 0-2.262 1.784-4.097 3.985-4.097 2.2 0 3.985 1.835 3.985 4.097"/><path d="M.755.726v24.069H9.72l5.98 6.655 5.48-6.656h9.464V.725H.755zm2.988 3.072h23.911v17.924h-7.861l-.897 1.087-3.295 4.004-3.684-4.103-.887-.988H3.743V3.798z"/><path d="M19.684 13.016c0 2.263-1.784 4.097-3.985 4.097-2.2 0-3.985-1.834-3.985-4.097 0-2.262 1.784-4.097 3.985-4.097 2.2 0 3.985 1.835 3.985 4.097"/></g></svg>