<svg width="36" height="36" viewBox="0 0 36 36" xmlns="http://www.w3.org/2000/svg"><title></title><path d="M16.673 29.396a1.446 1.446 0 0 1-2.05 0l-2.325-2.32a1.44 1.44 0 0 1 0-2.046l6.996-6.983-6.996-6.982a1.44 1.44 0 0 1 0-2.047l2.325-2.32a1.446 1.446 0 0 1 2.05 0l10.345 10.326a1.44 1.44 0 0 1 0 2.047L16.673 29.396zm18.663-11.349c0-9.643-7.839-17.467-17.5-17.467C8.174.58.336 8.404.336 18.047c0 9.644 7.838 17.467 17.5 17.467 9.661 0 17.5-7.823 17.5-17.467z" fill="#FFF" fill-rule="evenodd"/></svg>