<svg xmlns="http://www.w3.org/2000/svg" width="63.5" height="80" viewBox="0 0 63.5 80"><defs><style>.svg-global-large{fill:#000054;fill-rule:evenodd}</style></defs><path id="Icon_-_Global_Large" data-name="Icon - Global Large" class="svg-global-large" d="M1146.03 450.708c-.32 0-.63 0-.95-.013a31.705 31.705 0 0 1-30.82-31.967 32.213 32.213 0 0 1 10.29-23.588 31.2 31.2 0 0 1 24.16-8.288 32.054 32.054 0 0 1 19.39 54.826 31.308 31.308 0 0 1-22.07 9.03zm-23.23-27.867a23.746 23.746 0 0 0 13.87 17.722 48.336 48.336 0 0 1-5.43-17.722h-8.44zm37.97 0a48.257 48.257 0 0 1-5.42 17.709 23.754 23.754 0 0 0 13.85-17.709h-8.43zm-21.34 0a39.676 39.676 0 0 0 6.58 17.379 39.589 39.589 0 0 0 6.57-17.379h-13.15zm21.44-8.227h8.33a23.6 23.6 0 0 0-12.76-17.182 48.2 48.2 0 0 1 4.43 17.182zm-21.58 0h13.41a39.481 39.481 0 0 0-6.72-19.045 39.7 39.7 0 0 0-6.69 19.045zm-16.49 0h8.32a48.5 48.5 0 0 1 4.4-17.163 23.6 23.6 0 0 0-12.72 17.163zm23.23 36.094c-.32 0-.63 0-.95-.013a31.705 31.705 0 0 1-30.82-31.967 32.213 32.213 0 0 1 10.29-23.588 31.2 31.2 0 0 1 24.16-8.288 32.054 32.054 0 0 1 19.39 54.826 31.308 31.308 0 0 1-22.07 9.03zm-23.23-27.867a23.746 23.746 0 0 0 13.87 17.722 48.336 48.336 0 0 1-5.43-17.722h-8.44zm37.97 0a48.257 48.257 0 0 1-5.42 17.709 23.754 23.754 0 0 0 13.85-17.709h-8.43zm-21.34 0a39.676 39.676 0 0 0 6.58 17.379 39.589 39.589 0 0 0 6.57-17.379h-13.15zm21.44-8.227h8.33a23.6 23.6 0 0 0-12.76-17.182 48.2 48.2 0 0 1 4.43 17.182zm-21.58 0h13.41a39.481 39.481 0 0 0-6.72-19.045 39.7 39.7 0 0 0-6.69 19.045zm-16.49 0h8.32a48.5 48.5 0 0 1 4.4-17.163 23.6 23.6 0 0 0-12.72 17.163zm18.61 52.1l4.41-4.442 4.41 4.442 4.4-4.442-8.81-8.886-8.82 8.886zm4.62-16.006c-.32 0-.63 0-.95-.013a31.705 31.705 0 0 1-30.82-31.967 32.213 32.213 0 0 1 10.29-23.588 31.2 31.2 0 0 1 24.16-8.288 32.054 32.054 0 0 1 19.39 54.826 31.308 31.308 0 0 1-22.07 9.03zm-23.23-27.867a23.746 23.746 0 0 0 13.87 17.722 48.336 48.336 0 0 1-5.43-17.722h-8.44zm37.97 0a48.257 48.257 0 0 1-5.42 17.709 23.754 23.754 0 0 0 13.85-17.709h-8.43zm-21.34 0a39.676 39.676 0 0 0 6.58 17.379 39.589 39.589 0 0 0 6.57-17.379h-13.15zm21.44-8.227h8.33a23.6 23.6 0 0 0-12.76-17.182 48.2 48.2 0 0 1 4.43 17.182zm-21.58 0h13.41a39.481 39.481 0 0 0-6.72-19.045 39.7 39.7 0 0 0-6.69 19.045zm-16.49 0h8.32a48.5 48.5 0 0 1 4.4-17.163 23.6 23.6 0 0 0-12.72 17.163zm23.23 36.094c-.32 0-.63 0-.95-.013a31.705 31.705 0 0 1-30.82-31.967 32.213 32.213 0 0 1 10.29-23.588 31.2 31.2 0 0 1 24.16-8.288 32.054 32.054 0 0 1 19.39 54.826 31.308 31.308 0 0 1-22.07 9.03zm-23.23-27.867a23.746 23.746 0 0 0 13.87 17.722 48.336 48.336 0 0 1-5.43-17.722h-8.44zm37.97 0a48.257 48.257 0 0 1-5.42 17.709 23.754 23.754 0 0 0 13.85-17.709h-8.43zm-21.34 0a39.676 39.676 0 0 0 6.58 17.379 39.589 39.589 0 0 0 6.57-17.379h-13.15zm21.44-8.227h8.33a23.6 23.6 0 0 0-12.76-17.182 48.2 48.2 0 0 1 4.43 17.182zm-21.58 0h13.41a39.481 39.481 0 0 0-6.72-19.045 39.7 39.7 0 0 0-6.69 19.045zm-16.49 0h8.32a48.5 48.5 0 0 1 4.4-17.163 23.6 23.6 0 0 0-12.72 17.163zm18.61 52.1l4.41-4.442 4.41 4.442 4.4-4.442-8.81-8.886-8.82 8.886z" transform="translate(-1114.25 -386.719)"/></svg>