<svg xmlns="http://www.w3.org/2000/svg" width="21" height="17.062" viewBox="0 0 21 17.062"><defs><style>.svg-twitter{fill:#fff;fill-rule:evenodd}</style></defs><path id="Twitter" class="svg-twitter" d="M682.1 349.533a12.19 12.19 0 0 1-6.6-1.936 8.681 8.681 0 0 0 6.378-1.784 4.31 4.31 0 0 1-4.024-2.992 4.324 4.324 0 0 0 1.945-.074 4.309 4.309 0 0 1-3.455-4.224v-.054a4.307 4.307 0 0 0 1.951.539 4.315 4.315 0 0 1-1.333-5.753 12.232 12.232 0 0 0 8.88 4.5 4.317 4.317 0 0 1 4.2-5.29 4.3 4.3 0 0 1 3.145 1.361 8.648 8.648 0 0 0 2.736-1.046 4.325 4.325 0 0 1-1.895 2.384 8.633 8.633 0 0 0 2.475-.679 8.75 8.75 0 0 1-2.15 2.23c.008.185.013.371.013.558a12.175 12.175 0 0 1-12.266 12.26" transform="translate(-675.5 -332.469)"/></svg>